<mxfile host="Electron" modified="2024-07-14T00:44:16.475Z" agent="Mozilla/5.0 (Macintosh; Intel Mac OS X 10_15_7) AppleWebKit/537.36 (KHTML, like Gecko) draw.io/24.4.13 Chrome/124.0.6367.207 Electron/30.0.6 Safari/537.36" etag="wSiv_bLAQhL6fT5a7suA" version="24.4.13" type="device">
  <diagram name="Page-1" id="kohfrj5rESWB9pYsITul">
    <mxGraphModel dx="653" dy="1056" grid="1" gridSize="10" guides="1" tooltips="1" connect="1" arrows="1" fold="1" page="1" pageScale="1" pageWidth="850" pageHeight="1100" math="0" shadow="0">
      <root>
        <mxCell id="0" />
        <mxCell id="1" parent="0" />
        <mxCell id="b97F14zANpTaeulzLmzk-24" style="edgeStyle=orthogonalEdgeStyle;rounded=0;orthogonalLoop=1;jettySize=auto;html=1;entryX=0.5;entryY=0;entryDx=0;entryDy=0;" parent="1" source="b97F14zANpTaeulzLmzk-2" target="b97F14zANpTaeulzLmzk-3" edge="1">
          <mxGeometry relative="1" as="geometry" />
        </mxCell>
        <mxCell id="b97F14zANpTaeulzLmzk-2" value="start" style="ellipse;whiteSpace=wrap;html=1;" parent="1" vertex="1">
          <mxGeometry x="335" y="40" width="120" height="80" as="geometry" />
        </mxCell>
        <mxCell id="b97F14zANpTaeulzLmzk-23" style="edgeStyle=orthogonalEdgeStyle;rounded=0;orthogonalLoop=1;jettySize=auto;html=1;entryX=0.5;entryY=0;entryDx=0;entryDy=0;" parent="1" source="b97F14zANpTaeulzLmzk-3" target="b97F14zANpTaeulzLmzk-4" edge="1">
          <mxGeometry relative="1" as="geometry">
            <mxPoint x="395" y="240" as="targetPoint" />
          </mxGeometry>
        </mxCell>
        <mxCell id="b97F14zANpTaeulzLmzk-3" value="display menu" style="rounded=0;whiteSpace=wrap;html=1;" parent="1" vertex="1">
          <mxGeometry x="335.5" y="160" width="120" height="60" as="geometry" />
        </mxCell>
        <mxCell id="b97F14zANpTaeulzLmzk-25" style="edgeStyle=orthogonalEdgeStyle;rounded=0;orthogonalLoop=1;jettySize=auto;html=1;entryX=0.5;entryY=0;entryDx=0;entryDy=0;" parent="1" source="b97F14zANpTaeulzLmzk-4" target="b97F14zANpTaeulzLmzk-5" edge="1">
          <mxGeometry relative="1" as="geometry" />
        </mxCell>
        <mxCell id="b97F14zANpTaeulzLmzk-4" value="option" style="shape=parallelogram;perimeter=parallelogramPerimeter;whiteSpace=wrap;html=1;fixedSize=1;" parent="1" vertex="1">
          <mxGeometry x="335" y="250" width="120" height="60" as="geometry" />
        </mxCell>
        <mxCell id="b97F14zANpTaeulzLmzk-16" style="edgeStyle=orthogonalEdgeStyle;rounded=0;orthogonalLoop=1;jettySize=auto;html=1;entryX=0.5;entryY=0;entryDx=0;entryDy=0;" parent="1" source="b97F14zANpTaeulzLmzk-5" target="b97F14zANpTaeulzLmzk-11" edge="1">
          <mxGeometry relative="1" as="geometry" />
        </mxCell>
        <mxCell id="b97F14zANpTaeulzLmzk-20" value="no" style="edgeLabel;html=1;align=center;verticalAlign=middle;resizable=0;points=[];" parent="b97F14zANpTaeulzLmzk-16" vertex="1" connectable="0">
          <mxGeometry x="-0.06" y="-2" relative="1" as="geometry">
            <mxPoint as="offset" />
          </mxGeometry>
        </mxCell>
        <mxCell id="b97F14zANpTaeulzLmzk-5" value="option = 1" style="rhombus;whiteSpace=wrap;html=1;" parent="1" vertex="1">
          <mxGeometry x="308" y="340" width="175" height="80" as="geometry" />
        </mxCell>
        <mxCell id="b97F14zANpTaeulzLmzk-7" value="1. View all students&lt;div&gt;2. Search student&lt;/div&gt;&lt;div&gt;3. View all courses&lt;/div&gt;&lt;div&gt;4. Add student&lt;/div&gt;&lt;div&gt;5. Add course&lt;/div&gt;&lt;div&gt;6. Quit&lt;/div&gt;" style="text;html=1;align=center;verticalAlign=middle;whiteSpace=wrap;rounded=0;" parent="1" vertex="1">
          <mxGeometry x="60" y="132.5" width="180" height="115" as="geometry" />
        </mxCell>
        <mxCell id="b97F14zANpTaeulzLmzk-8" value="" style="endArrow=classic;html=1;rounded=0;" parent="1" source="b97F14zANpTaeulzLmzk-7" edge="1">
          <mxGeometry width="50" height="50" relative="1" as="geometry">
            <mxPoint x="180" y="240" as="sourcePoint" />
            <mxPoint x="320" y="190" as="targetPoint" />
          </mxGeometry>
        </mxCell>
        <mxCell id="RNSUuPImi6C4-O5msFEM-1" style="edgeStyle=orthogonalEdgeStyle;rounded=0;orthogonalLoop=1;jettySize=auto;html=1;" edge="1" parent="1" source="b97F14zANpTaeulzLmzk-9">
          <mxGeometry relative="1" as="geometry">
            <mxPoint x="550.5" y="770" as="targetPoint" />
          </mxGeometry>
        </mxCell>
        <mxCell id="RNSUuPImi6C4-O5msFEM-3" value="yes" style="edgeLabel;html=1;align=center;verticalAlign=middle;resizable=0;points=[];" vertex="1" connectable="0" parent="RNSUuPImi6C4-O5msFEM-1">
          <mxGeometry x="-0.0203" y="3" relative="1" as="geometry">
            <mxPoint as="offset" />
          </mxGeometry>
        </mxCell>
        <mxCell id="RNSUuPImi6C4-O5msFEM-8" style="edgeStyle=orthogonalEdgeStyle;rounded=0;orthogonalLoop=1;jettySize=auto;html=1;entryX=0.5;entryY=0;entryDx=0;entryDy=0;" edge="1" parent="1" source="b97F14zANpTaeulzLmzk-9" target="RNSUuPImi6C4-O5msFEM-6">
          <mxGeometry relative="1" as="geometry" />
        </mxCell>
        <mxCell id="RNSUuPImi6C4-O5msFEM-9" value="no" style="edgeLabel;html=1;align=center;verticalAlign=middle;resizable=0;points=[];" vertex="1" connectable="0" parent="RNSUuPImi6C4-O5msFEM-8">
          <mxGeometry x="-0.2957" y="2" relative="1" as="geometry">
            <mxPoint as="offset" />
          </mxGeometry>
        </mxCell>
        <mxCell id="b97F14zANpTaeulzLmzk-9" value="option = 4" style="rhombus;whiteSpace=wrap;html=1;" parent="1" vertex="1">
          <mxGeometry x="308.5" y="730" width="175" height="80" as="geometry" />
        </mxCell>
        <mxCell id="b97F14zANpTaeulzLmzk-19" style="edgeStyle=orthogonalEdgeStyle;rounded=0;orthogonalLoop=1;jettySize=auto;html=1;entryX=0.5;entryY=0;entryDx=0;entryDy=0;" parent="1" target="b97F14zANpTaeulzLmzk-9" edge="1">
          <mxGeometry relative="1" as="geometry">
            <mxPoint x="396" y="670" as="sourcePoint" />
          </mxGeometry>
        </mxCell>
        <mxCell id="b97F14zANpTaeulzLmzk-22" value="no" style="edgeLabel;html=1;align=center;verticalAlign=middle;resizable=0;points=[];" parent="b97F14zANpTaeulzLmzk-19" vertex="1" connectable="0">
          <mxGeometry x="-0.2" y="1" relative="1" as="geometry">
            <mxPoint as="offset" />
          </mxGeometry>
        </mxCell>
        <mxCell id="b97F14zANpTaeulzLmzk-17" value="no" style="edgeStyle=orthogonalEdgeStyle;rounded=0;orthogonalLoop=1;jettySize=auto;html=1;entryX=0.5;entryY=0;entryDx=0;entryDy=0;" parent="1" source="b97F14zANpTaeulzLmzk-11" target="b97F14zANpTaeulzLmzk-12" edge="1">
          <mxGeometry relative="1" as="geometry" />
        </mxCell>
        <mxCell id="b97F14zANpTaeulzLmzk-43" style="edgeStyle=orthogonalEdgeStyle;rounded=0;orthogonalLoop=1;jettySize=auto;html=1;exitX=1;exitY=0.5;exitDx=0;exitDy=0;entryX=0;entryY=0.5;entryDx=0;entryDy=0;" parent="1" source="b97F14zANpTaeulzLmzk-11" target="b97F14zANpTaeulzLmzk-29" edge="1">
          <mxGeometry relative="1" as="geometry" />
        </mxCell>
        <mxCell id="b97F14zANpTaeulzLmzk-11" value="option = 2" style="rhombus;whiteSpace=wrap;html=1;" parent="1" vertex="1">
          <mxGeometry x="308" y="460" width="175" height="80" as="geometry" />
        </mxCell>
        <mxCell id="b97F14zANpTaeulzLmzk-61" style="edgeStyle=orthogonalEdgeStyle;rounded=0;orthogonalLoop=1;jettySize=auto;html=1;entryX=1;entryY=0.5;entryDx=0;entryDy=0;" parent="1" source="b97F14zANpTaeulzLmzk-12" target="b97F14zANpTaeulzLmzk-44" edge="1">
          <mxGeometry relative="1" as="geometry" />
        </mxCell>
        <mxCell id="b97F14zANpTaeulzLmzk-12" value="option = 3" style="rhombus;whiteSpace=wrap;html=1;" parent="1" vertex="1">
          <mxGeometry x="308" y="590" width="175" height="80" as="geometry" />
        </mxCell>
        <mxCell id="b97F14zANpTaeulzLmzk-13" value="end" style="ellipse;whiteSpace=wrap;html=1;" parent="1" vertex="1">
          <mxGeometry x="335.5" y="1100" width="120" height="80" as="geometry" />
        </mxCell>
        <mxCell id="b97F14zANpTaeulzLmzk-62" style="edgeStyle=orthogonalEdgeStyle;rounded=0;orthogonalLoop=1;jettySize=auto;html=1;exitX=0.5;exitY=0;exitDx=0;exitDy=0;entryX=1;entryY=0.75;entryDx=0;entryDy=0;" parent="1" source="b97F14zANpTaeulzLmzk-28" target="b97F14zANpTaeulzLmzk-3" edge="1">
          <mxGeometry relative="1" as="geometry" />
        </mxCell>
        <mxCell id="b97F14zANpTaeulzLmzk-28" value="Display Students" style="rounded=1;whiteSpace=wrap;html=1;" parent="1" vertex="1">
          <mxGeometry x="550" y="350" width="120" height="60" as="geometry" />
        </mxCell>
        <mxCell id="b97F14zANpTaeulzLmzk-31" style="edgeStyle=orthogonalEdgeStyle;rounded=0;orthogonalLoop=1;jettySize=auto;html=1;" parent="1" source="b97F14zANpTaeulzLmzk-29" edge="1">
          <mxGeometry relative="1" as="geometry">
            <mxPoint x="720" y="500" as="targetPoint" />
          </mxGeometry>
        </mxCell>
        <mxCell id="b97F14zANpTaeulzLmzk-29" value="Display Student if exists" style="rounded=1;whiteSpace=wrap;html=1;" parent="1" vertex="1">
          <mxGeometry x="550" y="470" width="120" height="60" as="geometry" />
        </mxCell>
        <mxCell id="b97F14zANpTaeulzLmzk-35" style="edgeStyle=orthogonalEdgeStyle;rounded=0;orthogonalLoop=1;jettySize=auto;html=1;entryX=0;entryY=0.5;entryDx=0;entryDy=0;" parent="1" source="b97F14zANpTaeulzLmzk-33" target="b97F14zANpTaeulzLmzk-34" edge="1">
          <mxGeometry relative="1" as="geometry" />
        </mxCell>
        <mxCell id="b97F14zANpTaeulzLmzk-36" value="yes" style="edgeLabel;html=1;align=center;verticalAlign=middle;resizable=0;points=[];" parent="b97F14zANpTaeulzLmzk-35" vertex="1" connectable="0">
          <mxGeometry x="-0.24" y="-1" relative="1" as="geometry">
            <mxPoint as="offset" />
          </mxGeometry>
        </mxCell>
        <mxCell id="b97F14zANpTaeulzLmzk-37" style="edgeStyle=orthogonalEdgeStyle;rounded=0;orthogonalLoop=1;jettySize=auto;html=1;exitX=0.5;exitY=0;exitDx=0;exitDy=0;entryX=1;entryY=0.5;entryDx=0;entryDy=0;" parent="1" source="b97F14zANpTaeulzLmzk-33" target="b97F14zANpTaeulzLmzk-3" edge="1">
          <mxGeometry relative="1" as="geometry" />
        </mxCell>
        <mxCell id="b97F14zANpTaeulzLmzk-38" value="no" style="edgeLabel;html=1;align=center;verticalAlign=middle;resizable=0;points=[];" parent="b97F14zANpTaeulzLmzk-37" vertex="1" connectable="0">
          <mxGeometry x="-0.8332" y="1" relative="1" as="geometry">
            <mxPoint as="offset" />
          </mxGeometry>
        </mxCell>
        <mxCell id="b97F14zANpTaeulzLmzk-33" value="modify?" style="rhombus;whiteSpace=wrap;html=1;" parent="1" vertex="1">
          <mxGeometry x="720" y="460" width="130" height="80" as="geometry" />
        </mxCell>
        <mxCell id="b97F14zANpTaeulzLmzk-59" style="edgeStyle=orthogonalEdgeStyle;rounded=0;orthogonalLoop=1;jettySize=auto;html=1;" parent="1" source="b97F14zANpTaeulzLmzk-34" edge="1">
          <mxGeometry relative="1" as="geometry">
            <mxPoint x="790" y="320" as="targetPoint" />
            <Array as="points">
              <mxPoint x="950" y="320" />
            </Array>
          </mxGeometry>
        </mxCell>
        <mxCell id="b97F14zANpTaeulzLmzk-34" value="make modifications" style="rounded=0;whiteSpace=wrap;html=1;" parent="1" vertex="1">
          <mxGeometry x="890" y="470" width="120" height="60" as="geometry" />
        </mxCell>
        <mxCell id="b97F14zANpTaeulzLmzk-39" style="edgeStyle=orthogonalEdgeStyle;rounded=0;orthogonalLoop=1;jettySize=auto;html=1;entryX=0;entryY=0.5;entryDx=0;entryDy=0;" parent="1" source="b97F14zANpTaeulzLmzk-5" target="b97F14zANpTaeulzLmzk-28" edge="1">
          <mxGeometry relative="1" as="geometry" />
        </mxCell>
        <mxCell id="b97F14zANpTaeulzLmzk-63" style="edgeStyle=orthogonalEdgeStyle;rounded=0;orthogonalLoop=1;jettySize=auto;html=1;entryX=0;entryY=0.75;entryDx=0;entryDy=0;" parent="1" source="b97F14zANpTaeulzLmzk-44" target="b97F14zANpTaeulzLmzk-3" edge="1">
          <mxGeometry relative="1" as="geometry">
            <mxPoint x="280" y="210" as="targetPoint" />
            <Array as="points">
              <mxPoint x="220" y="210" />
              <mxPoint x="330" y="210" />
              <mxPoint x="330" y="205" />
            </Array>
          </mxGeometry>
        </mxCell>
        <mxCell id="b97F14zANpTaeulzLmzk-44" value="View Courses" style="rounded=1;whiteSpace=wrap;html=1;" parent="1" vertex="1">
          <mxGeometry x="160" y="600" width="120" height="60" as="geometry" />
        </mxCell>
        <mxCell id="b97F14zANpTaeulzLmzk-56" style="edgeStyle=orthogonalEdgeStyle;rounded=0;orthogonalLoop=1;jettySize=auto;html=1;entryX=0;entryY=0.75;entryDx=0;entryDy=0;" parent="1" target="b97F14zANpTaeulzLmzk-3" edge="1">
          <mxGeometry relative="1" as="geometry">
            <Array as="points">
              <mxPoint x="65" y="205" />
            </Array>
            <mxPoint x="65" y="710" as="sourcePoint" />
          </mxGeometry>
        </mxCell>
        <mxCell id="RNSUuPImi6C4-O5msFEM-10" style="edgeStyle=orthogonalEdgeStyle;rounded=0;orthogonalLoop=1;jettySize=auto;html=1;" edge="1" parent="1" source="RNSUuPImi6C4-O5msFEM-2">
          <mxGeometry relative="1" as="geometry">
            <mxPoint x="460" y="200" as="targetPoint" />
            <Array as="points">
              <mxPoint x="600" y="590" />
              <mxPoint x="500" y="590" />
              <mxPoint x="500" y="200" />
            </Array>
          </mxGeometry>
        </mxCell>
        <mxCell id="RNSUuPImi6C4-O5msFEM-2" value="create student and add to list" style="rounded=0;whiteSpace=wrap;html=1;" vertex="1" parent="1">
          <mxGeometry x="550.5" y="740" width="120" height="60" as="geometry" />
        </mxCell>
        <mxCell id="RNSUuPImi6C4-O5msFEM-4" style="edgeStyle=orthogonalEdgeStyle;rounded=0;orthogonalLoop=1;jettySize=auto;html=1;" edge="1" parent="1" source="RNSUuPImi6C4-O5msFEM-6">
          <mxGeometry relative="1" as="geometry">
            <mxPoint x="550.5" y="890" as="targetPoint" />
          </mxGeometry>
        </mxCell>
        <mxCell id="RNSUuPImi6C4-O5msFEM-5" value="yes" style="edgeLabel;html=1;align=center;verticalAlign=middle;resizable=0;points=[];" vertex="1" connectable="0" parent="RNSUuPImi6C4-O5msFEM-4">
          <mxGeometry x="-0.0203" y="3" relative="1" as="geometry">
            <mxPoint as="offset" />
          </mxGeometry>
        </mxCell>
        <mxCell id="RNSUuPImi6C4-O5msFEM-14" style="edgeStyle=orthogonalEdgeStyle;rounded=0;orthogonalLoop=1;jettySize=auto;html=1;entryX=0.5;entryY=0;entryDx=0;entryDy=0;" edge="1" parent="1" source="RNSUuPImi6C4-O5msFEM-6" target="RNSUuPImi6C4-O5msFEM-12">
          <mxGeometry relative="1" as="geometry" />
        </mxCell>
        <mxCell id="RNSUuPImi6C4-O5msFEM-6" value="option = 5" style="rhombus;whiteSpace=wrap;html=1;" vertex="1" parent="1">
          <mxGeometry x="308.5" y="850" width="175" height="80" as="geometry" />
        </mxCell>
        <mxCell id="RNSUuPImi6C4-O5msFEM-11" style="edgeStyle=orthogonalEdgeStyle;rounded=0;orthogonalLoop=1;jettySize=auto;html=1;" edge="1" parent="1" source="RNSUuPImi6C4-O5msFEM-7">
          <mxGeometry relative="1" as="geometry">
            <mxPoint x="600.5" y="610" as="targetPoint" />
            <Array as="points">
              <mxPoint x="700.5" y="890" />
              <mxPoint x="700.5" y="610" />
            </Array>
          </mxGeometry>
        </mxCell>
        <mxCell id="RNSUuPImi6C4-O5msFEM-7" value="create course and add to list" style="rounded=0;whiteSpace=wrap;html=1;" vertex="1" parent="1">
          <mxGeometry x="550.5" y="860" width="120" height="60" as="geometry" />
        </mxCell>
        <mxCell id="RNSUuPImi6C4-O5msFEM-13" style="edgeStyle=orthogonalEdgeStyle;rounded=0;orthogonalLoop=1;jettySize=auto;html=1;entryX=0.5;entryY=0;entryDx=0;entryDy=0;" edge="1" parent="1" source="RNSUuPImi6C4-O5msFEM-12" target="b97F14zANpTaeulzLmzk-13">
          <mxGeometry relative="1" as="geometry" />
        </mxCell>
        <mxCell id="RNSUuPImi6C4-O5msFEM-12" value="option = 6" style="rhombus;whiteSpace=wrap;html=1;" vertex="1" parent="1">
          <mxGeometry x="308" y="980" width="175" height="80" as="geometry" />
        </mxCell>
      </root>
    </mxGraphModel>
  </diagram>
</mxfile>
